Patient4_TMGait_0pt4_01_right_38_GRF.mot
version=1
nRows=72
nColumns=19
inDegrees=no
endheader
time	F1x	F1y	F1z	M1x	M1y	M1z	F2x	F2y	F2z	M2x	M2y	M2z	EC1x	EC1y	EC1z	EC2x	EC2y	EC2z
49.6	0.12448	733.8245	64.5924	-244.0702	-64.8615	790.6222	11.8683	-8.5837	-4.4619	-0.81723	1.8166	-17.7682	-0.0592	0.0182	-0.0073	-0.0462	0.0165	0.9585
49.6127	-1.6897	734.2737	62.6865	-244.1789	-63.4266	786.3494	7.7415	-5.5448	-3.0518	-0.38587	1.3641	-11.6719	-0.0592	0.0182	-0.0073	-0.0462	0.0165	0.9585
49.6254	-2.837	735.4525	61.0041	-244.4884	-61.903	782.7952	4.3118	-2.8818	-1.8502	-0.0050507	0.96997	-6.4139	-0.0592	0.0182	-0.0073	-0.0462	0.0165	0.9585
49.6381	-3.1984	737.6285	59.5582	-245.1138	-60.2804	780.425	1.7353	-0.75512	-0.93088	0.30608	0.66777	-2.2922	-0.0592	0.0182	-0.0073	-0.0462	0.0165	0.9585
49.6509	-2.7867	740.9203	58.3446	-246.1195	-58.576	779.4212	-0.018414	0.79786	-0.29289	0.54141	0.45741	0.64766	-0.0592	0.0182	-0.0073	-0.0462	0.0165	0.9585
49.6636	-1.6818	745.2597	57.3374	-247.495	-56.8056	779.7014	-1.095	1.8372	0.10463	0.70603	0.32609	2.5459	-0.0592	0.0182	-0.0073	-0.0462	0.0165	0.9585
49.6763	0.020065	750.3864	56.553	-249.154	-55.0347	780.9507	-1.6583	2.4633	0.31825	0.80877	0.25607	3.6175	-0.0592	0.0182	-0.0073	-0.0462	0.0165	0.9585
49.689	2.193	755.9335	55.9953	-250.9634	-53.3257	782.7405	-1.8849	2.7364	0.40249	0.84583	0.2334	4.0398	-0.0592	0.0182	-0.0073	-0.0462	0.0165	0.9585
49.7017	4.7231	761.4794	55.6897	-252.7666	-51.76	784.5965	-1.9372	2.7132	0.40706	0.81265	0.24713	3.9813	-0.0592	0.0182	-0.0073	-0.0462	0.0165	0.9585
49.7144	7.4873	766.5991	55.6265	-254.4066	-50.3791	786.0685	-1.901	2.4104	0.35564	0.69685	0.29852	3.5331	-0.0592	0.0182	-0.0073	-0.0462	0.0165	0.9585
49.7271	10.3901	770.9416	55.8084	-255.7511	-49.2252	786.8029	-1.8734	1.8132	0.27622	0.47879	0.39125	2.7418	-0.0592	0.0182	-0.0073	-0.0462	0.0165	0.9585
49.7399	13.3196	774.2116	56.1898	-256.6913	-48.289	786.5172	-1.8731	0.87636	0.18896	0.13209	0.51186	1.5793	-0.0592	0.0182	-0.0073	-0.0462	0.0165	0.9585
49.7526	16.18	776.1595	56.729	-257.1388	-47.5577	784.997	-1.8933	-0.417	0.11106	-0.35955	0.62958	0.045491	-0.0592	0.0182	-0.0073	-0.0462	0.0165	0.9585
49.7653	18.8983	776.5489	57.3618	-257.0158	-46.9849	782.0451	-1.8777	-2.0857	0.059153	-1.0033	0.69565	-1.8818	-0.0592	0.0182	-0.0073	-0.0462	0.0165	0.9585
49.778	21.4098	775.2173	58.0551	-256.2644	-46.553	777.5401	-1.7438	-4.0501	0.050941	-1.7676	0.65043	-4.1097	-0.0592	0.0182	-0.0073	-0.0462	0.0165	0.9585
49.7907	23.679	772.129	58.8003	-254.8712	-46.2591	771.4584	-1.3506	-6.081	0.11144	-2.5608	0.40891	-6.3867	-0.0592	0.0182	-0.0073	-0.0462	0.0165	0.9585
49.8034	25.7244	767.4557	59.6214	-252.8923	-46.126	763.982	-0.53504	-7.7526	0.27699	-3.2094	-0.1285	-8.2384	-0.0592	0.0182	-0.0073	-0.0462	0.0165	0.9585
49.8161	27.6076	761.5131	60.5192	-250.4403	-46.1403	755.4107	0.88474	-8.3359	0.586	-3.4221	-1.064	-8.8394	-0.0592	0.0182	-0.0073	-0.0462	0.0165	0.9585
49.8289	29.3997	754.6964	61.481	-247.6594	-46.2753	746.1164	3.1043	-6.7537	1.0756	-2.7691	-2.4972	-6.9673	-0.0592	0.0182	-0.0073	-0.0462	0.0165	0.9585
49.8416	31.1993	747.3214	62.4371	-244.6763	-46.4357	736.3771	6.215	-1.5801	1.7681	-0.68217	-4.4759	-0.9911	-0.0592	0.0182	-0.0073	-0.0462	0.0165	0.9585
49.8543	33.1044	739.462	63.2773	-241.5415	-46.4905	726.2515	10.1937	8.8967	2.6488	3.5213	-6.9577	11.0245	-0.0592	0.0182	-0.0073	-0.0462	0.0165	0.9585
49.867	35.1748	730.8191	63.8178	-238.1857	-46.2498	715.4449	14.7369	26.4964	3.6303	10.5643	-9.7133	31.1362	-0.0592	0.0182	-0.0073	-0.0462	0.0165	0.9585
49.8797	37.4336	720.6345	63.8478	-234.3896	-45.5141	703.2377	19.1313	52.7065	4.5456	21.0387	-12.2659	60.9902	-0.0592	0.0182	-0.0073	-0.0462	0.0165	0.9585
49.8924	39.8124	707.7378	63.0989	-229.7972	-44.0537	688.5437	22.109	88.0935	5.0791	35.1601	-13.7629	101.16	-0.0592	0.0182	-0.0073	-0.0462	0.0165	0.9585
49.9051	42.1689	690.6776	61.3513	-223.9559	-41.71	670.0214	22.2712	131.8269	4.7626	52.569	-13.1564	150.6716	-0.0592	0.0182	-0.0073	-0.0462	0.0165	0.9585
49.9179	44.2534	668.0011	58.4252	-216.4057	-38.395	646.3589	19.0247	181.364	3.2881	72.1947	-9.887	206.6622	-0.0592	0.0182	-0.0073	-0.0462	0.0165	0.9585
49.9306	45.7729	638.4775	54.3119	-206.7478	-34.1953	616.4509	13.0617	231.9055	0.37977	92.0881	-4.0141	263.6765	-0.0592	0.0182	-0.0073	-0.0462	0.0165	0.9585
49.9433	46.4092	601.4841	49.1479	-194.767	-29.3389	579.7638	6.2394	278.3732	-3.8956	110.2415	3.6271	315.7651	-0.0592	0.0182	-0.0073	-0.0462	0.0165	0.9585
49.956	45.9067	557.255	43.2704	-180.5129	-24.2152	536.5508	-0.11734	318.6623	-9.3813	125.8253	12.2936	360.42	-0.0592	0.0182	-0.0073	-0.0462	0.0165	0.9585
49.9687	44.1344	506.9528	37.0913	-164.3314	-19.2387	487.9061	-5.1977	353.798	-15.3021	139.3034	20.8501	398.6971	-0.0592	0.0182	-0.0073	-0.0462	0.0165	0.9585
49.9814	41.0968	452.4465	31.0622	-146.7955	-14.8115	435.5671	-8.78	386.2296	-21.2713	151.7106	28.7654	433.385	-0.0592	0.0182	-0.0073	-0.0462	0.0165	0.9585
49.9941	36.9192	395.9738	25.4986	-128.6004	-11.1731	381.5834	-10.9629	418.8207	-26.672	164.2518	35.4528	467.6976	-0.0592	0.0182	-0.0073	-0.0462	0.0165	0.9585
50.0069	31.7345	339.7868	20.6307	-110.4505	-8.4821	328.0313	-12.0099	454.0284	-31.4158	177.9413	40.9253	504.4071	-0.0592	0.0182	-0.0073	-0.0462	0.0165	0.9585
50.0196	25.75	285.9704	16.5439	-93.0102	-6.7498	276.7987	-12.2304	493.5094	-35.3743	193.4537	45.2075	545.3841	-0.0592	0.0182	-0.0073	-0.0462	0.0165	0.9585
50.0323	19.1791	236.2775	13.2471	-76.851	-5.9148	229.5019	-11.913	537.6407	-38.8978	210.9136	48.7895	591.1207	-0.0592	0.0182	-0.0073	-0.0462	0.0165	0.9585
50.045	12.3787	192.0548	10.6742	-62.4233	-5.8096	187.3614	-11.3565	585.293	-42.2067	229.8335	52.042	640.4635	-0.0592	0.0182	-0.0073	-0.0462	0.0165	0.9585
50.0577	5.7707	154.0492	8.7706	-49.9866	-6.2518	151.0507	-10.907	634.0179	-45.6887	249.1925	55.4938	690.8339	-0.0592	0.0182	-0.0073	-0.0462	0.0165	0.9585
50.0704	-0.19378	122.2767	7.4358	-39.5667	-7.006	120.5555	-10.8766	680.8697	-49.393	267.781	59.3139	739.11	-0.0592	0.0182	-0.0073	-0.0462	0.0165	0.9585
50.0831	-5.1949	96.1481	6.5385	-30.9902	-7.845	95.3179	-11.3965	723.0352	-53.304	284.4571	63.5183	782.3042	-0.0592	0.0182	-0.0073	-0.0462	0.0165	0.9585
50.0959	-9.0587	74.7863	5.9008	-23.9856	-8.5454	74.5322	-12.3991	758.3208	-57.0499	298.3574	67.6838	818.0634	-0.0592	0.0182	-0.0073	-0.0462	0.0165	0.9585
50.1086	-11.6882	57.24	5.3626	-18.2545	-8.9211	57.3277	-13.6438	785.3222	-60.3265	308.9421	71.3852	844.8776	-0.0592	0.0182	-0.0073	-0.0462	0.0165	0.9585
50.1213	-13.0092	42.7181	4.781	-13.5422	-8.8148	42.9977	-14.8588	803.419	-62.8089	315.9906	74.1779	862.068	-0.0592	0.0182	-0.0073	-0.0462	0.0165	0.9585
50.134	-12.9469	30.6309	4.0852	-9.6535	-8.1404	30.9966	-15.823	812.6772	-64.4428	319.5478	75.9144	869.7077	-0.0592	0.0182	-0.0073	-0.0462	0.0165	0.9585
50.1467	-11.5591	20.6498	3.2536	-6.472	-6.9028	21.0384	-16.347	813.8155	-65.2393	319.9044	76.5527	868.5766	-0.0592	0.0182	-0.0073	-0.0462	0.0165	0.9585
50.1594	-9.1906	12.7178	2.3571	-3.9671	-5.2848	13.0702	-16.3286	808.028	-65.3735	317.5296	76.2509	859.9785	-0.0592	0.0182	-0.0073	-0.0462	0.0165	0.9585
50.1721	-6.5679	6.9414	1.536	-2.1582	-3.6523	7.2297	-15.7607	796.8667	-64.9675	313.0368	75.1526	845.5951	-0.0592	0.0182	-0.0073	-0.0462	0.0165	0.9585
50.1849	-4.1681	3.1245	0.8845	-0.97428	-2.25	3.3559	-14.6786	782.152	-64.2013	307.1418	73.4741	827.3953	-0.0592	0.0182	-0.0073	-0.0462	0.0165	0.9585
50.1976	-2.2415	0.9158	0.41556	-0.29671	-1.1717	1.1185	-13.1407	765.8575	-63.1836	300.6214	71.3722	807.491	-0.0592	0.0182	-0.0073	-0.0462	0.0165	0.9585
50.2103	-0.83649	-0.12141	0.11706	0.010445	-0.42267	0.061707	-11.2432	749.8692	-62.0989	294.2127	69.0849	787.8915	-0.0592	0.0182	-0.0073	-0.0462	0.0165	0.9585
50.223	0.086872	-0.37455	-0.043846	0.069675	0.039601	-0.19493	-9.1171	735.7816	-61.0919	288.5327	66.8203	770.2907	-0.0592	0.0182	-0.0073	-0.0462	0.0165	0.9585
50.2357	0.63163	-0.15933	-0.10996	-0.01843	0.28817	0.022641	-6.904	724.7904	-60.3143	284.0425	64.794	755.9641	-0.0592	0.0182	-0.0073	-0.0462	0.0165	0.9585
50.2484	0.88853	0.29945	-0.11477	-0.18045	0.38463	0.49549	-4.7485	717.7115	-59.8052	281.0575	63.1064	745.7867	-0.0592	0.0182	-0.0073	-0.0462	0.0165	0.9585
50.2611	0.96228	0.84826	-0.094259	-0.36738	0.39451	1.0708	-2.7426	714.9523	-59.5946	279.7319	61.8254	740.1917	-0.0592	0.0182	-0.0073	-0.0462	0.0165	0.9585
50.2739	0.92625	1.3907	-0.059663	-0.54787	0.35305	1.6473	-0.95082	716.4552	-59.6413	280.0424	60.9301	739.1219	-0.0592	0.0182	-0.0073	-0.0462	0.0165	0.9585
50.2866	0.82957	1.8692	-0.030795	-0.70461	0.29487	2.1637	0.60304	721.67	-59.9154	281.775	60.3887	742.0022	-0.0592	0.0182	-0.0073	-0.0462	0.0165	0.9585
50.2993	0.70928	2.234	-0.00067909	-0.82315	0.2273	2.5655	1.9256	729.6673	-60.3424	284.5635	60.1124	747.8702	-0.0592	0.0182	-0.0073	-0.0462	0.0165	0.9585
50.312	0.57939	2.4567	0.017182	-0.8948	0.1669	2.8263	3.0368	739.2151	-60.8884	287.9262	60.0438	755.4566	-0.0592	0.0182	-0.0073	-0.0462	0.0165	0.9585
50.3247	0.44657	2.4845	0.031998	-0.90114	0.10614	2.8795	3.9405	748.9614	-61.4925	291.3425	60.104	763.3784	-0.0592	0.0182	-0.0073	-0.0462	0.0165	0.9585
50.3374	0.30306	2.2648	0.031798	-0.82236	0.050671	2.6623	4.6546	757.6671	-62.1067	294.3342	60.2296	770.3771	-0.0592	0.0182	-0.0073	-0.0462	0.0165	0.9585
50.3501	0.14617	1.726	0.025535	-0.63014	-0.0082835	2.0753	5.1856	764.3139	-62.6546	296.5187	60.3397	775.4067	-0.0592	0.0182	-0.0073	-0.0462	0.0165	0.9585
50.3629	-0.023963	0.8049	-0.00098828	-0.30001	-0.056388	1.0319	5.5428	768.2754	-63.0824	297.6658	60.3779	777.8142	-0.0592	0.0182	-0.0073	-0.0462	0.0165	0.9585
50.3756	-0.19704	-0.58557	-0.043819	0.19413	-0.085952	-0.5665	5.7992	769.3537	-63.3348	297.709	60.27	777.3619	-0.0592	0.0182	-0.0073	-0.0462	0.0165	0.9585
50.3883	-0.3325	-2.4761	-0.1172	0.85732	-0.066746	-2.745	6.0149	767.6851	-63.4104	296.7059	59.9953	774.1528	-0.0592	0.0182	-0.0073	-0.0462	0.0165	0.9585
50.401	-0.37304	-4.7913	-0.21475	1.6605	0.018956	-5.41	6.2838	763.6583	-63.3314	294.8101	59.5452	768.5284	-0.0592	0.0182	-0.0073	-0.0462	0.0165	0.9585
50.4137	-0.2178	-7.2966	-0.34726	2.5203	0.21729	-8.2996	6.7107	757.8781	-63.178	292.2482	58.9603	761.0586	-0.0592	0.0182	-0.0073	-0.0462	0.0165	0.9585
50.4264	0.24979	-9.4814	-0.50744	3.2644	0.56349	-10.8218	7.4118	751.0418	-63.0238	289.2829	58.2728	752.4043	-0.0592	0.0182	-0.0073	-0.0462	0.0165	0.9585
50.4391	1.202	-10.4971	-0.69454	3.6033	1.111	-11.9933	8.4845	743.8552	-62.9626	286.176	57.5429	743.2574	-0.0592	0.0182	-0.0073	-0.0462	0.0165	0.9585
50.4519	2.7826	-9.0835	-0.88814	3.1063	1.8855	-10.3341	10.0239	736.8788	-63.0547	283.1381	56.8017	734.1725	-0.0592	0.0182	-0.0073	-0.0462	0.0165	0.9585
50.4646	5.1278	-3.5181	-1.049	1.1848	2.8814	-3.8452	12.0664	730.3619	-63.3289	280.2651	56.0695	725.419	-0.0592	0.0182	-0.0073	-0.0462	0.0165	0.9585
50.4773	8.277	8.3071	-1.0997	-2.8845	4.0152	9.9337	14.572	724.1266	-63.7406	277.4896	55.3241	716.8825	-0.0592	0.0182	-0.0073	-0.0462	0.0165	0.9585
50.49	12.0954	28.6343	-0.93317	-9.8762	5.1077	33.604	17.431	717.4679	-64.199	274.5448	54.5252	707.9623	-0.0592	0.0182	-0.0073	-0.0462	0.0165	0.9585
50.5027	16.1515	59.448	-0.39818	-20.4745	5.8326	69.4446	20.4155	709.1425	-64.5163	270.9679	53.581	697.574	-0.0592	0.0182	-0.0073	-0.0462	0.0165	0.9585
